<svg height="512" viewBox="0 0 64 64" width="512" xmlns="http://www.w3.org/2000/svg" xmlns:xlink="http://www.w3.org/1999/xlink"><linearGradient id="New_Gradient_Swatch_3" gradientUnits="userSpaceOnUse" x1="31.194" x2="32.884" y1="63.015" y2="-2.025"><stop offset="0" stop-color="#006df0"/><stop offset="1" stop-color="#00e7f0"/></linearGradient><linearGradient id="New_Gradient_Swatch_3-2" x1="6.062" x2="7.751" xlink:href="#New_Gradient_Swatch_3" y1="62.362" y2="-2.678"/><linearGradient id="New_Gradient_Swatch_3-3" x1="11.059" x2="12.748" xlink:href="#New_Gradient_Swatch_3" y1="62.492" y2="-2.548"/><linearGradient id="New_Gradient_Swatch_3-4" x1="16.055" x2="17.745" xlink:href="#New_Gradient_Swatch_3" y1="62.622" y2="-2.418"/><linearGradient id="New_Gradient_Swatch_3-5" x1="31.298" x2="32.988" xlink:href="#New_Gradient_Swatch_3" y1="63.018" y2="-2.022"/><path d="m59 2h-54a3 3 0 0 0 -3 3v54a3 3 0 0 0 3 3h54a3 3 0 0 0 3-3v-54a3 3 0 0 0 -3-3zm-54 2h54a1 1 0 0 1 1 1v5h-56v-5a1 1 0 0 1 1-1zm54 56h-54a1 1 0 0 1 -1-1v-47h56v47a1 1 0 0 1 -1 1z" fill="url(#New_Gradient_Swatch_3)"/><path d="m7 8h1a1 1 0 0 0 0-2h-1a1 1 0 0 0 0 2z" fill="url(#New_Gradient_Swatch_3-2)"/><path d="m12 8h1a1 1 0 0 0 0-2h-1a1 1 0 0 0 0 2z" fill="url(#New_Gradient_Swatch_3-3)"/><path d="m17 8h1a1 1 0 0 0 0-2h-1a1 1 0 0 0 0 2z" fill="url(#New_Gradient_Swatch_3-4)"/><g fill="url(#New_Gradient_Swatch_3-5)"><path d="m32 18a18 18 0 1 0 18 18 18.021 18.021 0 0 0 -18-18zm0 34a16 16 0 1 1 16-16 16.019 16.019 0 0 1 -16 16z"/><path d="m39.07 48.31a1 1 0 0 1 -.707-.293l-6.363-6.363-6.363 6.363a1 1 0 0 1 -1.414 0l-4.24-4.24a1 1 0 0 1 0-1.414l6.363-6.363-6.363-6.363a1 1 0 0 1 0-1.414l4.24-4.24a1 1 0 0 1 1.414 0l6.363 6.363 6.363-6.363a1 1 0 0 1 1.414 0l4.24 4.24a1 1 0 0 1 0 1.414l-6.363 6.363 6.363 6.363a1 1 0 0 1 0 1.414l-4.24 4.24a1 1 0 0 1 -.707.293zm-7.07-9.07a1 1 0 0 1 .707.293l6.363 6.367 2.83-2.83-6.363-6.363a1 1 0 0 1 0-1.414l6.363-6.363-2.83-2.83-6.363 6.363a1 1 0 0 1 -1.414 0l-6.363-6.363-2.83 2.83 6.363 6.363a1 1 0 0 1 0 1.414l-6.363 6.363 2.83 2.83 6.363-6.363a1 1 0 0 1 .707-.297z"/></g></svg>