<svg height="512pt" viewBox="-76 0 512 512" width="512pt" xmlns="http://www.w3.org/2000/svg"><path d="m195 77.378906c-.011719 0-.019531 0-.03125 0h-29.875c-.011719 0-.019531 0-.03125 0h-.03125v21.621094h30v-21.621094zm0 0" fill="#6a675f"/><path d="m165.09375 77.382812c-.011719 0-.019531-.003906-.03125-.003906h-.03125v21.621094h15v-21.617188zm0 0" fill="#969287"/><path d="m195 77.378906c8.269531-.015625 14.96875-6.726562 14.96875-15 0-8.28125-6.714844-15-15-15h-14.9375v30zm0 0" fill="#969287"/><path d="m150.09375 62.382812c0 8.273438 6.699219 14.980469 14.96875 14.996094h14.96875v-29.996094h-14.9375c-8.285156 0-15 6.714844-15 15zm0 0" fill="#aeaa9c"/><path d="m180.03125 77.382812v-.003906h-14.96875c.011719 0 .019531.003906.03125.003906zm0 0" fill="#969287"/><path d="m180.03125 77.382812h14.9375c.011719 0 .019531-.003906.03125-.003906h-14.96875zm0 0" fill="#969287"/><path d="m286.117188 0h-212.175782c-8.285156 0-15 6.714844-15 15s6.714844 15 15 15h2.738282v69h30v-69h146.703124v69h30v-69h2.734376c8.285156 0 15-6.714844 15-15s-6.714844-15-15-15zm0 0" fill="#d8d3c2"/><path d="m73.941406 0c-8.285156 0-15 6.714844-15 15s6.714844 15 15 15h2.738282v69h30v-69h73.351562v-30zm0 0" fill="#e7e2d0"/><path d="m286.117188 421.445312c-4.140626 0-208.035157 0-212.175782 0-8.285156 0-15 6.71875-15 15v60.554688c0 8.285156 6.714844 15 15 15h212.175782c8.285156 0 15-6.714844 15-15v-60.554688c0-8.285156-6.714844-15-15-15zm0 0" fill="#e7e2d0"/><path d="m286.121094 421.445312c-4.144532 0-55.117188 0-106.089844 0v90.554688h106.089844c8.28125 0 15-6.714844 15-15v-60.554688c0-8.28125-6.71875-15-15-15zm0 0" fill="#d8d3c2"/><path d="m281.179688 88.035156h-202.300782c-43.5625 0-78.878906 35.316406-78.878906 78.878906v205.652344c0 43.566406 35.316406 78.878906 78.882812 78.878906h202.296876c43.566406 0 78.882812-35.3125 78.882812-78.878906v-205.652344c0-43.5625-35.316406-78.878906-78.882812-78.878906zm0 0" fill="#f7f1df"/><path d="m281.179688 88.035156h-101.148438v363.410156h101.148438c43.566406 0 78.882812-35.3125 78.882812-78.878906v-205.652344c0-43.5625-35.316406-78.878906-78.882812-78.878906zm0 0" fill="#e7e2d0"/><path d="m244.984375 261.957031-52.859375-72.0625c-2.824219-3.855469-7.316406-6.128906-12.09375-6.128906s-9.269531 2.273437-12.09375 6.128906l-52.859375 72.0625c-13.300781 18.132813-18.464844 41.15625-14.171875 63.171875 4.316406 22.113282 17.851562 41.621094 37.140625 53.511719 12.949219 7.984375 27.46875 11.976563 41.984375 11.976563 14.519531 0 29.035156-3.992188 41.984375-11.976563 19.289063-11.890625 32.824219-31.394531 37.140625-53.511719 4.292969-22.015625-.871094-45.039062-14.171875-63.171875zm0 0" fill="#e69323"/><path d="m222.816406 307.753906-30.691406-41.84375c-2.824219-3.851562-7.316406-6.128906-12.09375-6.128906s-9.269531 2.277344-12.09375 6.128906l-30.691406 41.84375c-8.757813 11.9375-12.160156 27.101563-9.332032 41.601563 2.84375 14.558593 11.75 27.398437 24.4375 35.21875 8.539063 5.265625 18.109376 7.898437 27.679688 7.898437s19.144531-2.632812 27.679688-7.898437c12.6875-7.820313 21.597656-20.660157 24.4375-35.21875 2.828124-14.5-.574219-29.664063-9.332032-41.601563zm0 0" fill="#eaa827"/><path d="m127.914062 349.355469c-2.828124-14.5.570313-29.664063 9.328126-41.605469l30.691406-41.839844c2.828125-3.855468 7.320312-6.128906 12.097656-6.128906v-76.015625c-4.777344 0-9.269531 2.273437-12.097656 6.125l-52.859375 72.066406c-13.300781 18.132813-18.464844 41.15625-14.167969 63.171875 4.316406 22.113282 17.851562 41.617188 37.140625 53.511719 6.117187 3.773437 12.589844 6.644531 19.246094 8.632813-1.679688-.804688-3.328125-1.707032-4.941407-2.699219-12.6875-7.824219-21.59375-20.660157-24.4375-35.21875zm0 0" fill="#eaa827"/><path d="m180.03125 390.617188c-7.65625 0-15.3125-1.121094-22.738281-3.34375 7.210937 3.464843 14.972656 5.195312 22.738281 5.195312zm0 0" fill="#f6de41"/><path d="m180.03125 392.472656c7.761719 0 15.523438-1.734375 22.734375-5.195312-7.425781 2.21875-15.078125 3.339844-22.734375 3.339844zm0 0" fill="#f6de41"/><path d="m180.03125 390.617188v-130.835938c-4.777344 0-9.269531 2.277344-12.09375 6.128906l-30.691406 41.839844c-8.757813 11.941406-12.160156 27.105469-9.332032 41.605469 2.84375 14.558593 11.75 27.394531 24.4375 35.21875 1.613282.996093 3.261719 1.894531 4.941407 2.699219 7.425781 2.222656 15.082031 3.34375 22.738281 3.34375zm0 0" fill="#efbe2c"/></svg>