<svg width="48" height="48" viewBox="0 0 48 48" xmlns="http://www.w3.org/2000/svg">
	<g transform="translate(-528 -528)" fill="none" fill-rule="evenodd">
		<g id="Entrar" transform="translate(528 528)">
			<path d="M9.5 23h18a1.5 1.5 0 0 1 0 3h-18a1.5 1.5 0 0 1 0-3zm8-20H19a1.5 1.5 0 0 1 0 3h-1.5a1.5 1.5 0 0 1 0-3zm0 39H19a1.5 1.5 0 0 1 0 3h-1.5a1.5 1.5 0 0 1 0-3z" id="Shape" fill="#3F3E3E" fill-rule="nonzero">
			</path>
			<path d="M18.5 43.5h14.96a6.5 6.5 0 0 0 6.5-6.5V11a6.5 6.5 0 0 0-6.5-6.5H18.492" id="Shape" stroke="#3F3E3E" stroke-width="3">
			</path>
			<path id="Shape" stroke="#3F3E3E" stroke-width="3" stroke-linecap="round" d="M22 16l7 8.5-7 8.5">
			</path>
		</g>
	</g>
</svg>
