<svg id="Capa_1" enable-background="new 0 0 511.997 511.997" height="512" viewBox="0 0 511.997 511.997" width="512" xmlns="http://www.w3.org/2000/svg"><g><path d="m474.003 347.045c-26.142 44.43-80.03 62.415-126.691 44.89-5.585-2.088-11.067-4.695-16.382-7.822s-10.256-6.653-14.794-10.522c-37.98-32.278-48.431-88.118-22.289-132.548s80.036-62.424 126.697-44.9c5.586 2.088 11.067 4.695 16.382 7.822s10.256 6.653 14.794 10.521c37.979 32.279 48.425 88.129 22.283 132.559z" fill="#f9f6f9"/><path d="m451.719 214.487-104.408 177.448c-5.585-2.088-11.067-4.695-16.382-7.822s-10.256-6.653-14.794-10.522l104.407-177.448c5.586 2.088 11.067 4.695 16.382 7.822 5.316 3.128 10.257 6.653 14.795 10.522z" fill="#dfeaef"/><path d="m222.886 60.545c21.698 46.761 5.867 101.321-35.072 129.753-4.892 3.409-10.153 6.438-15.747 9.033-5.594 2.596-11.303 4.657-17.065 6.192-48.144 12.904-100.028-10.235-121.726-56.996s-5.872-101.331 35.067-129.763c4.893-3.409 10.153-6.438 15.747-9.033s11.303-4.657 17.065-6.192c48.145-12.904 100.033 10.245 121.731 57.006z" fill="#f9f6f9"/><g fill="#dfeaef"><path d="m367.911 391.929c8.592 3.224 17.42 5.254 26.28 6.119-15.587 1.545-31.616-.391-46.884-6.119-5.584-2.081-11.064-4.687-16.38-7.819s-10.261-6.655-14.793-10.518c-37.983-32.276-48.429-88.122-22.293-132.554 21.346-36.263 61.162-54.919 100.464-51.004-32.08 3.173-62.254 21.098-79.86 51.004-26.136 44.432-15.69 100.278 22.293 132.554 4.533 3.863 9.478 7.386 14.793 10.518 5.316 3.131 10.796 5.738 16.38 7.819z"/><path d="m138.427 208.545c-43.021 4.296-85.928-18.595-105.151-60.019-21.695-46.76-5.872-101.339 35.068-129.762 4.893-3.41 10.147-6.439 15.741-9.035s11.311-4.656 17.07-6.191c12.331-3.307 24.91-4.244 37.169-3.029-5.542.556-11.074 1.556-16.565 3.029-5.759 1.536-11.477 3.596-17.07 6.192-5.594 2.596-10.848 5.625-15.741 9.035-40.94 28.423-56.763 83.002-35.068 129.762 16.143 34.789 48.975 56.495 84.547 60.018z"/><path d="m101.155 3.539 86.659 186.759c-4.892 3.409-10.153 6.438-15.747 9.033-5.594 2.596-11.303 4.657-17.065 6.192l-86.659-186.759c4.893-3.409 10.153-6.438 15.747-9.033 5.594-2.596 11.303-4.657 17.065-6.192z"/></g><g><path d="m351.752 209.351-39.062 42.696-26.126 3.953c-27.5 30.058-110.116-52.958-82.616-83.016l-.124-20.547 39.057-42.691c27.5-30.058 74.171-32.14 104.237-4.633 15.029 13.75 23.066 32.291 23.905 51.159.831 18.861-5.521 38.05-19.271 53.079z" fill="#da4a54"/><path d="m203.824 152.437 39.055-42.688c27.5-30.058 74.171-32.14 104.238-4.633 5.986 5.476 10.867 11.726 14.621 18.433-28.243-12.631-62.556-6.495-84.572 17.569l-39.055 42.688-42.476 25.258c-22.024 24.071 8.189-56.627 8.189-56.627z" fill="#c32430"/><path d="m312.69 252.047-11.314 12.366-27.749 30.33c-27.5 30.058-74.172 32.125-104.23 4.625-30.066-27.507-32.14-74.171-4.64-104.229l23.057-25.202 16.005-17.494z" fill="#e4f6ff"/><path d="m203.825 152.437-39.065 42.698c-27.5 30.058-25.426 76.722 4.641 104.23 5.994 5.484 12.643 9.784 19.665 12.935-15.095-27.003-12.042-61.724 9.981-85.797l39.065-42.699z" fill="#d3effb"/></g><g><path d="m220.009 302.206 37.366 44.188c26.306 31.108 32.078 94.159.97 120.465-31.117 26.313-87.338 5.924-113.644-25.185l-37.366-44.188c-26.306-31.108-22.42-77.664 8.697-103.977 15.554-13.153 34.968-18.76 53.79-17.186 18.812 1.581 37.034 10.328 50.187 25.883z" fill="#da4a54"/><path d="m144.7 441.674-37.365-44.185c-26.306-31.108-22.419-77.664 8.697-103.977 6.195-5.239 13.016-9.283 20.147-12.151-16.13 26.401-14.42 61.217 6.641 86.122l37.359 44.18c21.068 24.912-9.173 61.119-35.479 30.011z" fill="#c32430"/><path d="m257.375 346.393 37.366 44.188c26.306 31.108 22.404 77.663-8.704 103.969-31.117 26.313-77.664 22.419-103.97-8.689l-37.367-44.187z" fill="#e4f6ff"/><path d="m144.696 441.668 37.368 44.191c26.306 31.108 72.854 35.002 103.971 8.689 6.203-5.246 11.316-11.293 15.338-17.855-28.707 11.528-62.756 4.073-83.823-20.84l-37.369-44.191z" fill="#d3effb"/></g></g></svg>