<?xml version="1.0"?>
<svg xmlns="http://www.w3.org/2000/svg" xmlns:xlink="http://www.w3.org/1999/xlink" xmlns:svgjs="http://svgjs.com/svgjs" version="1.1" width="512" height="512" x="0" y="0" viewBox="0 0 464 464.01771" style="enable-background:new 0 0 512 512" xml:space="preserve" class=""><g><path xmlns="http://www.w3.org/2000/svg" d="m16.007812 232.019531h416v232h-416zm0 0" fill="#668796" data-original="#668796" style="" class=""/><path xmlns="http://www.w3.org/2000/svg" d="m304.007812 232.019531h16v232h-16zm0 0" fill="#4d6877" data-original="#4d6877" style="" class=""/><path xmlns="http://www.w3.org/2000/svg" d="m48.007812 320.019531h232v72h-232zm0 0" fill="#ffffff" data-original="#ffffff" style="" class=""/><path xmlns="http://www.w3.org/2000/svg" d="m16.007812 432.019531h296v32h-296zm0 0" fill="#4d6877" data-original="#4d6877" style="" class=""/><path xmlns="http://www.w3.org/2000/svg" d="m408.007812 136.019531v-32h-368v32l-39.9999995 80v16h447.9999995v-16zm0 0" fill="#5dbfe9" data-original="#5cc4a6" style="" class=""/><path xmlns="http://www.w3.org/2000/svg" d="m40.007812 104.019531h368v32h-368zm0 0" fill="#1383b3" data-original="#239172" style="" class=""/><path xmlns="http://www.w3.org/2000/svg" d="m224.007812.0195312c-34.398437-.8007812-63.199218 25.5976568-64 59.9999998v5.597657c0 9.601562 2.402344 18.402343 6.402344 27.199218l57.597656 99.203125 57.601563-99.203125c4.800781-8 6.398437-17.597656 6.398437-27.199218v-5.597657c-.800781-34.402343-29.597656-60.800781-64-59.9999998zm0 0" fill="#ef4848" data-original="#ef4848" style="" class=""/><path xmlns="http://www.w3.org/2000/svg" d="m248.007812 56.019531c0 13.253907-10.742187 24-24 24-13.253906 0-24-10.746093-24-24 0-13.257812 10.746094-24 24-24 13.257813 0 24 10.742188 24 24zm0 0" fill="#ffffff" data-original="#ffffff" style="" class=""/><path xmlns="http://www.w3.org/2000/svg" d="m.0078125 232.019531v28c0 15.199219 12.8007815 28 27.9999995 28 15.199219 0 28-12.800781 28-28v-28" fill="#1383b3" data-original="#2ab793" style="" class=""/><path xmlns="http://www.w3.org/2000/svg" d="m112.007812 232.019531v28c0 15.199219-12.800781 28-28 28-15.199218 0-28-12.800781-28-28v-28" fill="#18a4e0" data-original="#f7d289" style="" class=""/><path xmlns="http://www.w3.org/2000/svg" d="m168.007812 232.019531v28c0 15.199219-12.800781 28-28 28-15.199218 0-28-12.800781-28-28v-28" fill="#1383b3" data-original="#2ab793" style="" class=""/><path xmlns="http://www.w3.org/2000/svg" d="m224.007812 232.019531v28c0 15.199219-12.800781 28-28 28-15.199218 0-28-12.800781-28-28v-28" fill="#18a4e0" data-original="#f7d289" style="" class=""/><path xmlns="http://www.w3.org/2000/svg" d="m224.007812 232.019531v28c0 15.199219 12.800782 28 28 28 15.199219 0 28-12.800781 28-28v-28" fill="#1383b3" data-original="#2ab793" style="" class=""/><path xmlns="http://www.w3.org/2000/svg" d="m280.007812 232.019531v28c0 15.199219 12.800782 28 28 28 15.199219 0 28-12.800781 28-28v-28" fill="#18a4e0" data-original="#f7d289" style="" class=""/><path xmlns="http://www.w3.org/2000/svg" d="m336.007812 232.019531v28c0 15.199219 12.800782 28 28 28 15.199219 0 28-12.800781 28-28v-28" fill="#1383b3" data-original="#2ab793" style="" class=""/><path xmlns="http://www.w3.org/2000/svg" d="m392.007812 232.019531v28c0 15.199219 12.800782 28 28 28 15.199219 0 28-12.800781 28-28v-28" fill="#18a4e0" data-original="#f7d289" style="" class=""/><g xmlns="http://www.w3.org/2000/svg" fill="#e4e7ea"><path d="m232.007812 392.019531h-32l72-72h8v24zm0 0" fill="#e4e7ea" data-original="#e4e7ea" style="" class=""/><path d="m168.007812 392.019531h-32l72-72h32zm0 0" fill="#e4e7ea" data-original="#e4e7ea" style="" class=""/><path d="m104.007812 392.019531h-32l72-72h32zm0 0" fill="#e4e7ea" data-original="#e4e7ea" style="" class=""/><path d="m48.007812 384.019531v-32l32-32h32zm0 0" fill="#e4e7ea" data-original="#e4e7ea" style="" class=""/></g><path xmlns="http://www.w3.org/2000/svg" d="m336.007812 304.019531h80v144h-80zm0 0" fill="#ffffff" data-original="#ffffff" style="" class=""/><path xmlns="http://www.w3.org/2000/svg" d="m336.007812 352.019531h16v16h-16zm0 0" fill="#668796" data-original="#668796" style="" class=""/><path xmlns="http://www.w3.org/2000/svg" d="m336.007812 432.019531v-32l80-80v32zm0 0" fill="#e4e7ea" data-original="#e4e7ea" style="" class=""/><path xmlns="http://www.w3.org/2000/svg" d="m392.007812 448.019531h-32l56-56v32zm0 0" fill="#e4e7ea" data-original="#e4e7ea" style="" class=""/></g></svg>
